<?xml version="1.0" encoding="utf-8"?>
<!-- Generator: Adobe Illustrator 23.0.1, SVG Export Plug-In . SVG Version: 6.00 Build 0)  -->
<svg version="1.1" id="Layer_1" xmlns="http://www.w3.org/2000/svg" xmlns:xlink="http://www.w3.org/1999/xlink" x="0px" y="0px"
	 width="300px" height="70px" viewBox="0 0 300 70" style="enable-background:new 0 0 300 70;" xml:space="preserve">
<style type="text/css">
	.st0{fill:#5A4A42;stroke:#5B4A42;stroke-width:1.2435;stroke-miterlimit:10;}
	.st1{fill:#5A4A42;}
</style>
<g>
	<g>
		<path class="st0" d="M27.6,53.8c-9.2,1.6-14.8,2.3-17,2.3C4.9,56.1,2,52.3,2,44.6c0-8.2,2-18.7,6-31.8c0.3-1,1-1.6,2-1.6
			c0.6,0,1.1,0.2,1.6,0.6c0.5,0.4,0.7,0.9,0.7,1.5c0,0.2,0,0.4-0.1,0.7c-2.3,7.5-3.9,13.1-4.8,17C6,36.5,5.4,41,5.4,44.6
			c0,5.3,1.8,7.9,5.3,7.9c4.1,0,9.5-0.6,16.2-1.9c0.6-0.2,1.1,0,1.5,0.3c0.4,0.4,0.6,0.8,0.6,1.3C28.9,53.1,28.5,53.6,27.6,53.8z"/>
		<path class="st0" d="M54.9,45.3c-3.5,7.2-8.1,10.8-13.8,10.8c-2.8,0-5.1-0.9-7-2.7s-2.8-4.1-2.8-6.8c0-4.2,2.1-8.4,6.3-12.4
			c3.9-3.8,7.4-5.7,10.4-5.7c2.4,0,4.2,0.7,5.4,2.2c1,1.2,1.6,2.7,1.6,4.5c0,1.2-0.6,1.8-1.9,1.8s-1.8-0.6-1.8-1.9
			c0-2.2-1.1-3.3-3.2-3.3c-2,0-4.5,1.6-7.5,4.7c-3.3,3.5-5,6.8-5,10.1c0,4.1,1.9,6.2,5.6,6.2c2.7,0,5.3-1.3,7.6-3.9
			c3.1-3.5,5.3-8.8,6.6-16.1c0.2-1,0.8-1.6,1.7-1.6c1.2,0,1.7,0.7,1.6,2c-0.2,2.3-0.2,5.4-0.2,9.3c0,4.9,0.3,7.8,0.9,8.6
			c0.3,0.4,0.4,0.7,0.4,1.1c0,0.5-0.2,1-0.6,1.4c-0.4,0.4-0.9,0.6-1.4,0.6c-1,0-1.8-0.8-2.2-2.4C55.2,50.9,55,48.7,54.9,45.3z"/>
		<path class="st0" d="M134.6,45.3c-3.5,7.2-8.1,10.8-13.8,10.8c-2.8,0-5.1-0.9-7-2.7c-1.9-1.8-2.8-4.1-2.8-6.8
			c0-4.2,2.1-8.4,6.3-12.4c3.9-3.8,7.4-5.7,10.4-5.7c2.4,0,4.2,0.7,5.4,2.2c1,1.2,1.6,2.7,1.6,4.5c0,1.2-0.6,1.8-1.8,1.8
			c-1.2,0-1.9-0.6-1.9-1.9c0-2.2-1.1-3.3-3.2-3.3c-2,0-4.5,1.6-7.5,4.7c-3.3,3.5-5,6.8-5,10.1c0,4.1,1.9,6.2,5.6,6.2
			c2.7,0,5.3-1.3,7.6-3.9c3.1-3.5,5.3-8.8,6.6-16.1c0.2-1,0.8-1.6,1.7-1.6c1.2,0,1.7,0.7,1.6,2c-0.2,2.3-0.2,5.4-0.2,9.3
			c0,4.9,0.3,7.8,0.9,8.6c0.3,0.4,0.4,0.7,0.4,1.1c0,0.5-0.2,1-0.6,1.4c-0.4,0.4-0.9,0.6-1.4,0.6c-1,0-1.8-0.8-2.2-2.4
			C134.9,50.9,134.7,48.7,134.6,45.3z"/>
		<path class="st0" d="M181.8,11.4c-21.2,0-33.7,1.1-37.5,3.3c-0.4,0.3-0.9,0.4-1.3,0.4c-0.7,0-1.3-0.3-1.7-0.8s-0.7-1.1-0.7-1.8
			c0-0.9,0.4-1.6,1.3-2.1c1.3-0.8,3.7-1.4,7.3-1.7c5.5-0.4,16.4-0.6,32.7-0.6c1.1,0,1.7,0.5,1.7,1.6
			C183.4,10.9,182.9,11.4,181.8,11.4z M171.8,52.1c-2.9,2.6-6.1,3.9-9.7,3.9c-2.5,0-4.3-0.8-5.6-2.3s-1.9-3.6-1.9-6.3
			c0-1.8,0.6-6.5,1.9-14.1c1.3-7.8,2-13.8,2.1-17.8c0-1,0.6-1.6,1.7-1.6c1.2,0,1.7,0.6,1.7,1.7c-0.1,4-0.7,9.9-1.7,17.8
			c-1,7.4-1.4,12.1-1.4,14c0,3.5,1.2,5.3,3.5,5.3c2.7,0,5.6-0.8,8.4-2.3c0.6-0.3,1.1-0.4,1.6-0.4c0.4,0.1,0.6,0.3,0.6,0.7
			C172.6,51.2,172.3,51.6,171.8,52.1z"/>
		<path class="st0" d="M203.6,49.8c-5.2,4.3-10.2,6.4-15,6.4c-7.8,0-11.7-3.1-11.7-9.3c0-2,0.5-4.1,1.4-6.3
			c-0.4-0.4-0.7-0.8-0.7-1.3c0-0.9,0.5-1.3,1.4-1.3c0.2,0,0.3,0,0.5,0.1c1.6-2.8,3.7-5.2,6.1-7c2.7-1.9,5.4-2.9,8.1-2.9
			c2.1,0,4,0.4,5.6,1.3c1.9,1.1,2.9,2.6,2.9,4.6c0,2.8-1.6,5.2-4.9,7.2c-2.9,1.7-5.8,2.5-8.8,2.5c-2.1,0-4.3-0.4-6.4-1.2
			c-0.6,1.6-1,3.1-1,4.4c0,3.9,2.5,5.9,7.5,5.9c4.7,0,9.1-1.6,13.4-4.7c0.5-0.3,0.9-0.5,1.3-0.5c0.7,0,1.1,0.3,1.1,0.9
			C204.4,49,204.1,49.4,203.6,49.8z M198.9,34c0-1.4-1.7-2-5.2-2c-1.9,0-3.8,0.8-5.7,2.3c-1.8,1.4-3.3,3.2-4.6,5.4
			c1.7,0.5,3.4,0.7,5.1,0.7c2,0,4.2-0.6,6.4-1.7C197.5,37.4,198.9,35.8,198.9,34z"/>
		<path class="st0" d="M230.3,29.7c1.1,0.2,1.7,0.5,1.7,1.1c0,0.5-1.3,1-3.9,1.4c-1.6,0.2-3.2,0.5-4.8,0.7c-3.6,0.8-6.1,2.3-7.4,4.4
			c-0.8,1.3-1.6,4-2.4,8.3c0.2,6,0,9.6-0.7,10.9c-0.4,0.8-1.1,1.1-1.8,1.1c-1.2,0-1.8-1.3-1.8-3.8c0-0.6,0.3-3.1,0.9-7.3l0.3-2
			c-0.2-5.8-0.5-9.8-0.9-11.9c-0.1-0.6,0-1.1,0.3-1.5c0.3-0.4,0.8-0.6,1.3-0.6c1,0,1.6,0.5,1.7,1.6l0.2,2.6c1.7-2.7,4.9-4.4,9.7-5.1
			C225,29.3,227.6,29.3,230.3,29.7z"/>
		<path class="st0" d="M298.4,57.9c0,1.1-0.6,1.6-1.7,1.6c-1.1,0-1.7-0.5-1.7-1.6c0-14.3-2.1-21.5-6.4-21.5c-3.1,0-6.1,1.5-9.2,4.5
			c-0.9,0.9-3.2,3.7-6.9,8.3c-2.4,3-4.3,4.5-5.6,4.5c-1.9,0-3.4-1.3-4.4-4c-0.8-2.5-1.6-5-2.4-7.5c-1.1-2.7-2.7-4-4.8-4
			c-3.1,0-5.9,1.6-8.4,4.7c-0.8,1-2.4,3.9-5.1,8.7c-1.7,3.1-3.2,4.7-4.6,4.7c-2.6,0-4.2-4.2-5-12.7c-0.2-2.8-0.4-7.7-0.4-14.6
			c0-1.1,0.5-1.7,1.6-1.7c1.1,0,1.7,0.6,1.7,1.7c0,3.2,0.3,7.4,0.8,12.5c0.6,6.1,1.3,9.1,2,9.1c0.2,0,1.1-1.4,2.7-4.2
			c1.9-3.3,3.7-5.9,5.5-7.7c2.8-2.7,5.9-4.1,9.1-4.1c3.1,0,5.5,1,7.2,3c1.1,1.4,2,3.5,2.7,6.4c0.8,3.1,1.5,5,2,5.7
			c0.6,0,2-1.5,4.4-4.5c3-3.9,5.5-6.8,7.5-8.5c3.5-3.1,6.9-4.6,10.2-4.6c6.1,0,9.2,6.5,9.2,19.5c0,1,0,2.1-0.1,3.6
			C298.5,56.6,298.4,57.5,298.4,57.9z"/>
	</g>
	<g>
		<g>
			<path class="st1" d="M101.9,45.3c-0.3,0.8-1,5.2-1.2,7.6c-0.2,2.4-0.1,5.1-2,5.3c-1.8,0.2-2.1-5.8-2.1-8.9
				c-0.2,2.8,0.1,8.8-1.8,8.9c-1.5,0.1-1.8-1.7-2.1-4.8c-0.3-2.6-1-6.8-3.2-8.6c1.2-0.3,2.3-1,2.9-1.8c0.6,0.8,2.1,2.9,4.8,3.4
				C99.4,46.7,100.8,46.1,101.9,45.3z"/>
			<path class="st1" d="M73,45.9c-0.2,0.9-0.6,5.6-0.5,8c0.1,2.4-0.3,4.1-1.7,4.2s-1.7-1.5-2.3-4.8s-1.2-6-2-7.6
				C67.7,46.7,70.5,47.9,73,45.9z"/>
			<path class="st1" d="M77.5,45.6c-0.3,0.7-1.5,4-1.6,6.9c-0.1,2.9,0,5.5-1.6,5.6c-1,0.1-1.5-0.6-1.7-1.5c0.2-1.2,0.3-2,0.3-4
				c0-2.1,0.4-5.4,0.5-6.8c0.4-0.4,1.5-1.3,1.8-1.6C75.5,44.5,76.5,45.3,77.5,45.6z"/>
			<path class="st1" d="M75.2,11.8c2.1-0.4,3.9,0.7,4.6,2.5c2.4-0.2,4.6,0.6,4.6,0.8c0,0.2-0.2,0.7-1.7,1.3
				c-3.4,1.3-1.3,0.6-0.7,3.3c0.2,1,0,1.8-0.2,2.4c-0.2,0.4,0.5,0.8,0.8,0.4c2.7-2.8,6.5-2.2,8-0.7c3.4-3.4,7.2-0.5,7.1,0.7
				c2.7-3.2,7.1-0.8,6.6,2.2c3.5,0.2,5.6,4.9,2.2,8c3.7,2.7,1.2,8-2.4,7.6c-0.4,1.1-0.6,5.4-5.9,5.6c-3.3,0.1-4.1-1.9-5.8-3.4
				c-3.5,3.5-6.4,3.1-10.9,1.2c-0.8,0.6-1.4,1.6-3.2,1.6c-1.7,0.1-2.7-1.5-3.1-1.5c-0.4,0-1.4,1.6-3.5,2.4c-4.9,1.9-7.9-3.3-5.9-6.3
				c-3.8-1.5-4.1-6.3-1-9.1c-2.3-2.2-2.1-5-0.7-6.6c-0.1-0.4-1.1-2-1-4c0.1-2,1.1-2.8,1.3-3.1c-1.6-0.7-3.8-2.2-3.6-2.6
				c0.2-0.4,2.5-0.6,4.4-0.4c0.2-1,1.8-2.4,5.1-2C71.6,10.4,74.1,10.6,75.2,11.8z M72.8,10c-1.3,0-2.2,0.7-2.6,1.2
				c-2.1-0.2-4.2,0.2-5.3,2c-5.1-0.3-6.7,1.3-1.5,4.2c-1.3,1.9-1,4.5,0,6.7c-1.5,1.9-1.2,4.9,0.4,6.7c-2.6,2.7-2.5,7.5,1,9.5
				c-1.6,4.7,3.8,10.5,10.5,4.5c2.1,1.7,4.2,1.8,6.4-0.2c4.2,1.8,7,2,10.6-0.9c0.4,0.5,1.2,1.2,2.3,2.1c2.1,1.7,6.3,1.1,8.2-0.7
				c1.4-1.3,1.7-2.8,1.9-3.9c3.8-0.2,6.1-5.4,3-8.5c2.7-3.3,1-7.8-2.6-8.6c-0.2-3-4.3-5.1-7.2-2.9c-1.3-1.5-4.5-2.8-7.4-0.4
				c-2-1.4-5.2-1.5-7.7,0.4c0.1-1.2-0.2-2.4-0.9-3.5c1.1-0.4,3.4-1.1,3.3-2.6c0-1.4-3.6-1.6-4.9-1.6c-0.9-1.7-2.7-2.8-4.8-2.5
				C74.7,10.2,73.8,9.9,72.8,10C73.7,9.9,71.9,10,72.8,10z"/>
			<path class="st1" d="M67.9,19c1,0.6,1.8,1.1,2.5,2.8C70.5,19.3,68.5,18.8,67.9,19z"/>
			<path class="st1" d="M74.5,21.7c0.6-1.6,1.4-2.1,2.4-2.7C76.4,18.8,74.4,19.3,74.5,21.7z"/>
			<path class="st1" d="M68.8,24.1c0.4,1.1,1.1,3.7,3.2,3.7c1.8,0,3.2-1.2,3.9-3c0.6-1.5,0.3-2.9,1.5-4c-1.2,0.6-1.4,2.4-1.8,3.7
				c-0.4,1.3-1.6,2.5-3.2,2.7c0-0.6,0-1,0-1.3c0.5-0.3,0.5-0.8,1-1.2c-0.7,0.2-0.9,0.6-1.2,0.6c-0.3,0-0.6-0.5-1.2-0.7
				c0.5,0.5,0.6,1,1,1.2c0,0.4,0,1,0,1.3c-1.4-0.1-2.3-1.5-2.8-3c-0.5-1.5-0.9-3.2-1.8-3.8C68.2,21.3,68.3,22.6,68.8,24.1z"/>
		</g>
	</g>
</g>
</svg>
